<?xml version="1.0" encoding="UTF-8"?>
<svg width="193px" height="52px" viewBox="0 0 193 52" version="1.1" xmlns="http://www.w3.org/2000/svg" xmlns:xlink="http://www.w3.org/1999/xlink">
    <!-- Generator: Sketch 61.2 (89653) - https://sketch.com -->
    <title>logo_anny</title>
    <desc>Created with Sketch.</desc>
    <defs>
        <linearGradient x1="31.962772%" y1="68.052512%" x2="96.6575503%" y2="3.45600097%" id="linearGradient-1">
            <stop stop-color="#149B8B" offset="0%"></stop>
            <stop stop-color="#78BDAC" offset="100%"></stop>
        </linearGradient>
    </defs>
    <g id="logo_anny" stroke="none" stroke-width="1" fill="none" fill-rule="evenodd">
        <g id="Anny_Digital_Assinatura-Variação_Colorida_Fundo-branco-cinza" fill-rule="nonzero">
            <path d="M18.598696,1.76488849 L14.7811136,1.76488849 C13.5292341,1.76488849 12.4076716,2.53824241 11.9631722,3.70782609 L0,35.1975 L5.87907692,35.1975 L16.6998022,7.36054348 L27.5205275,35.1975 L33.3996044,35.1975 L21.4378462,3.71913043 C20.9899373,2.54125219 19.8595438,1.76318156 18.598696,1.76488849 Z" id="Path" fill="#5C357D"></path>
            <path d="M47.6632234,10.1357445 L39.3324103,10.1357445 C37.6925494,10.1357445 36.3631795,11.4643072 36.3631795,13.1031522 L36.3631795,35.1706522 L42.1871136,35.1706522 L42.1871136,14.8948913 L47.6632234,14.8948913 C49.7601789,14.8911407 51.7726776,15.7203317 53.2577037,17.1999325 C54.7427299,18.6795333 55.5785496,20.6882549 55.5811722,22.783913 L55.5811722,35.1706522 L61.4135897,35.1706522 L61.4135897,23.8408696 C61.409468,20.200945 59.9582756,16.7118221 57.3794181,14.1414526 C54.8005606,11.5710831 51.3054023,10.1301356 47.6632234,10.1357445 L47.6632234,10.1357445 Z" id="Path" fill="#5C357D"></path>
            <path d="M77.0670916,10.1357345 L68.7376923,10.1357345 C67.0978314,10.1357345 65.7684615,11.4643072 65.7684615,13.1031522 L65.7684615,35.1706522 L71.5938095,35.1706522 L71.5938095,14.8948913 L77.0727473,14.8948913 C79.1697027,14.8911407 81.1822014,15.7203317 82.6672275,17.1999325 C84.1522537,18.6795333 84.9880734,20.6882549 84.990696,22.783913 L84.990696,35.1706522 L90.8245275,35.1706522 L90.8245275,23.8408696 C90.8200324,20.1998342 89.367749,16.7098568 86.7874431,14.1393652 C84.2071372,11.5688736 80.7103798,10.1286342 77.0670916,10.1357345 L77.0670916,10.1357345 Z" id="Path" fill="#5C357D"></path>
            <path d="M116.825092,10.1357578 L113.973216,10.1357578 L113.961905,30.4115217 L108.491451,30.4115217 C106.394381,30.4156477 104.381664,29.5865776 102.896556,28.1068956 C101.411449,26.6272135 100.575749,24.6182736 100.573502,22.5225 L100.573502,13.1413043 C100.573502,11.4821689 99.2276731,10.1371739 97.5675092,10.1371739 L94.7396703,10.1371739 L94.7396703,21.4669565 C94.743418,25.1063905 96.1938627,28.5952332 98.771843,31.1657863 C101.349823,33.7363394 104.844106,35.1779779 108.485795,35.1734783 L113.961905,35.1734783 L113.961905,39.2359783 C113.959283,41.3315069 113.123418,43.3400837 111.638351,44.8194602 C110.153284,46.2988367 108.140781,47.1277129 106.043956,47.123587 L100.581985,47.123587 L100.581985,51.8827279 L106.05244,51.8827279 C109.694129,51.8872171 113.188411,50.4455786 115.766391,47.8750254 C118.344372,45.3044723 119.794816,41.8156297 119.798567,38.1761957 L119.798567,13.1073913 C119.799692,12.3189209 119.486779,11.56242 118.9289,11.0048866 C118.371021,10.4473533 117.614051,10.1346337 116.825092,10.1357578 Z" id="Path" fill="#5C357D"></path>
            <path d="M127.624608,0.16673913 L116.224176,2.80913043 C115.324098,3.01615247 114.6869,3.8177269 114.688656,4.74076087 L114.688656,4.74076087 C114.688656,5.83332418 115.574906,6.71902174 116.668147,6.71902174 L118.769231,6.71902174 C121.194663,6.71902174 123.160864,8.68400504 123.160864,11.1079348 L123.160864,13.2048913 C123.160864,14.2974546 124.047111,15.1831558 125.140352,15.1831558 L125.140352,15.1831558 C126.063958,15.1849103 126.866029,14.5481072 127.073179,13.648587 L129.717209,2.25380435 C129.849164,1.6688218 129.671594,1.05708786 129.246875,0.633492843 C128.822156,0.209897823 128.209684,0.0336791842 127.624608,0.16673913 L127.624608,0.16673913 Z" id="Path" fill="url(#linearGradient-1)"></path>
            <path d="M151.353004,22.8008696 C151.29885,22.7470796 151.268763,22.673691 151.269582,22.5973913 L151.269582,16.0027174 L149.053971,16.0027174 C148.977624,16.0035365 148.90419,15.9734676 148.850366,15.9193478 C148.79382,15.8619253 148.763616,15.7836494 148.766945,15.7031522 L148.766945,14.8058696 C148.763703,14.7264329 148.791603,14.6488669 148.844711,14.5896739 C148.899196,14.5330643 148.975459,14.5026811 149.053971,14.5063043 L155.173414,14.5063043 C155.254348,14.5012865 155.333543,14.5312328 155.390882,14.5885362 C155.448221,14.6458397 155.478186,14.7249857 155.473165,14.8058696 L155.473165,15.7031522 C155.478186,15.784036 155.448221,15.863182 155.390882,15.9204855 C155.333543,15.977789 155.254348,16.0077352 155.173414,16.0027174 L152.970527,16.0027174 L152.970527,22.5973913 C152.971494,22.6726422 152.943679,22.7454232 152.892762,22.8008696 C152.837235,22.8567911 152.76087,22.8870105 152.682088,22.8842391 L151.550952,22.8842391 C151.476565,22.8835515 151.405446,22.8535981 151.353004,22.8008696 Z" id="Path" fill="#3CA691"></path>
            <path d="M177.209348,22.8008696 C177.155195,22.7470796 177.125107,22.673691 177.125927,22.5973913 L177.125927,14.8058696 C177.122685,14.7264329 177.150585,14.6488669 177.203692,14.5896739 C177.258282,14.53322 177.334472,14.502866 177.412952,14.5063043 L180.335524,14.5063043 C182.692056,14.5063043 183.893888,15.5896377 183.941018,17.7563043 C183.9561,18.2197826 183.964112,18.5311232 183.965055,18.6903261 C183.965998,18.849529 183.957985,19.1566304 183.941018,19.6116304 C183.908027,20.7288768 183.606391,21.5526812 183.03611,22.0830435 C182.465829,22.6134058 181.5859,22.8828261 180.396322,22.8913043 L177.412952,22.8913043 C177.33556,22.890276 177.261972,22.8575906 177.209348,22.8008696 L177.209348,22.8008696 Z M180.335524,21.4966304 C180.995353,21.4966304 181.474672,21.3487319 181.77348,21.0529348 C182.072288,20.7571377 182.227819,20.2663406 182.240073,19.5805435 C182.255155,19.1029348 182.263167,18.8038406 182.26411,18.6832609 C182.265053,18.5626812 182.25704,18.2673551 182.240073,17.7972826 C182.224049,17.1435145 182.060505,16.6630797 181.749443,16.3559783 C181.438381,16.0488768 180.946808,15.8948551 180.274725,15.893913 L178.814147,15.893913 L178.814147,21.4966304 L180.335524,21.4966304 Z" id="Shape" fill="#3CA691"></path>
            <path d="M130.681502,34.9940217 C130.225695,34.8194473 129.824564,34.5268322 129.51926,34.1461957 C129.261379,33.8168786 129.113059,33.4151797 129.095084,32.9973913 C129.095485,32.9326832 129.121395,32.8707416 129.167194,32.825 C129.212498,32.7735225 129.278176,32.7445801 129.346762,32.7458696 L130.436894,32.7458696 C130.51315,32.7429759 130.588371,32.7642423 130.65181,32.8066304 C130.71328,32.8523937 130.76597,32.9088809 130.807341,32.9733696 C130.899392,33.260043 131.09362,33.502929 131.353114,33.6558696 C131.635897,33.8442754 132.024725,33.9384783 132.519597,33.9384783 C133.079509,33.9384783 133.500857,33.8442754 133.783641,33.6558696 C134.052566,33.4926742 134.214185,33.1987097 134.207817,32.8843478 C134.21338,32.6822866 134.135083,32.4869217 133.991487,32.3445652 C133.803168,32.1747409 133.581034,32.0466474 133.33967,31.9686957 C133.048403,31.8598913 132.61433,31.7313043 132.040278,31.5786957 C131.097665,31.3554348 130.40673,31.0601087 129.967473,30.6927174 C129.528215,30.3253261 129.310943,29.7973188 129.315656,29.1086957 C129.310102,28.6661058 129.444168,28.2330092 129.698828,27.8708696 C129.977822,27.4890743 130.357771,27.1925452 130.796029,27.0145652 C131.321326,26.7971465 131.886127,26.6912819 132.454557,26.7036957 C133.045882,26.6893907 133.6329,26.8076872 134.172469,27.0498913 C134.607172,27.2425879 134.986416,27.5414226 135.275326,27.918913 C135.507512,28.2169089 135.646688,28.5766734 135.675465,28.9532609 C135.675131,29.0183976 135.64924,29.0808036 135.603355,29.1270652 C135.557904,29.1781787 135.492185,29.206622 135.423788,29.2047826 L134.292652,29.2047826 C134.139046,29.2184003 133.994107,29.1317192 133.933516,28.99 C133.8811,28.7174431 133.709411,28.4826194 133.465509,28.3498913 C132.828673,28.0075459 132.063003,28.0048963 131.42381,28.3428261 C131.176676,28.50169 131.032848,28.7800159 131.046293,29.0733696 C131.039482,29.2707456 131.108254,29.4632868 131.238586,29.6117391 C131.406086,29.7820136 131.610809,29.9111562 131.836674,29.9890217 C132.224919,30.1327603 132.620976,30.2544757 133.022952,30.353587 C133.606242,30.4715637 134.175099,30.6520639 134.719656,30.8919565 C135.092564,31.0537815 135.413882,31.314782 135.648601,31.6465217 C135.860562,31.9958441 135.964821,32.3998437 135.948352,32.8080435 C135.959562,33.2914056 135.810419,33.7648909 135.524176,34.1546739 C135.215592,34.5517387 134.800172,34.8526947 134.326586,35.0222826 C133.753048,35.2317384 133.145675,35.3333039 132.53515,35.3218478 C131.901555,35.3374599 131.271257,35.2259888 130.681502,34.9940217 L130.681502,34.9940217 Z" id="Path" fill="#3CA691"></path>
            <path d="M138.742256,35.1141304 C138.687584,35.0605766 138.656974,34.9871583 138.657421,34.9106522 L138.657421,27.1177174 C138.653943,27.0386689 138.681899,26.9614556 138.735187,26.9029348 C138.789895,26.8457843 138.866834,26.8153375 138.945861,26.8195652 L139.91581,26.8195652 C140.068949,26.8200374 140.208387,26.907818 140.274945,27.0456522 L142.586703,31.331413 L144.897048,27.0456522 C144.963606,26.907818 145.103044,26.8200374 145.256183,26.8195652 L146.214821,26.8195652 C146.295494,26.8145877 146.374443,26.8443478 146.431731,26.9013305 C146.489019,26.9583132 146.519171,27.0370714 146.514571,27.1177174 L146.514571,34.9106522 C146.518012,34.9890842 146.487639,35.0652265 146.43115,35.1197826 C146.371921,35.1728569 146.294306,35.2007401 146.214821,35.1975 L145.185487,35.1975 C145.02931,35.1975 144.902703,35.0709718 144.902703,34.9148913 L144.902703,29.7629348 L143.230037,32.923913 C143.164187,33.0841212 143.007438,33.1881823 142.834139,33.1867391 L142.332198,33.1867391 C142.157703,33.1829649 142.000207,33.0813112 141.924989,32.923913 L140.260806,29.7629348 L140.260806,34.9106522 C140.26313,34.986138 140.235125,35.0594131 140.18304,35.1141304 C140.12845,35.1705843 140.052261,35.2009383 139.97378,35.1975 L138.944447,35.1975 C138.868589,35.1979379 138.795736,35.1678982 138.742256,35.1141304 Z" id="Path" fill="#3CA691"></path>
            <path d="M170.660073,35.1141304 C170.60592,35.0603405 170.575832,34.9869518 170.576652,34.9106522 L170.576652,28.3145652 L168.36104,28.3145652 C168.28444,28.3167398 168.210488,28.2864588 168.157436,28.2311957 C168.099846,28.1749397 168.068987,28.0968134 168.072601,28.016413 L168.072601,27.1177174 C168.06973,27.0387629 168.097606,26.9617719 168.150366,26.9029348 C168.205182,26.8459441 168.282044,26.8155274 168.36104,26.8195652 L174.477656,26.8195652 C174.558329,26.8145877 174.637278,26.8443478 174.694566,26.9013305 C174.751854,26.9583132 174.782006,27.0370714 174.777407,27.1177174 L174.777407,28.016413 C174.782006,28.097059 174.751854,28.1758173 174.694566,28.2328 C174.637278,28.2897826 174.558329,28.3195427 174.477656,28.3145652 L172.274769,28.3145652 L172.274769,34.9106522 C172.275941,34.9862027 172.247527,35.0592205 172.19559,35.1141304 C172.141104,35.17074 172.064842,35.2011233 171.98633,35.1975 L170.855194,35.1975 C170.781791,35.196077 170.711819,35.1661799 170.660073,35.1141304 L170.660073,35.1141304 Z" id="Path" fill="#3CA691"></path>
            <path d="M164.707473,22.5013043 L162.969766,19.4491304 C163.441211,19.2984309 163.852301,19.0014411 164.143319,18.6013043 C164.435712,18.1692199 164.584157,17.6559168 164.567495,17.1345652 C164.567495,16.2961594 164.289895,15.6499275 163.734696,15.1958696 C163.179497,14.7418116 162.411267,14.5143116 161.430007,14.5133696 L158.327868,14.5133696 C158.249356,14.5097463 158.173093,14.5401296 158.118608,14.5967391 C158.065119,14.655791 158.036722,14.7333271 158.039429,14.8129348 L158.039429,22.6044565 C158.039429,22.760537 158.166035,22.8870652 158.322212,22.8870652 L159.423656,22.8870652 C159.504091,22.8897231 159.582161,22.8596364 159.639985,22.8036957 C159.694139,22.7499057 159.724226,22.6765171 159.723407,22.6002174 L159.723407,15.8472826 L161.38759,15.8472826 C161.866908,15.8472826 162.226044,15.956087 162.46641,16.1765217 C162.716721,16.4223528 162.847783,16.7647584 162.825546,17.1147826 C162.825546,17.5217391 162.705834,17.8311957 162.46641,18.0431522 C162.299127,18.1787197 162.10015,18.2696378 161.888117,18.3073913 L161.907912,18.3073913 C161.097736,18.4981522 161.165604,19.1368478 161.249026,19.3488043 C161.390418,19.6992391 162.896242,22.5606522 162.896242,22.5606522 C162.946913,22.6485202 163.011904,22.7273202 163.088535,22.7938043 C163.174857,22.857805 163.281,22.8893279 163.388286,22.8828261 L164.489729,22.8828261 C164.554846,22.8821942 164.617182,22.8563633 164.663641,22.8107609 C164.714948,22.7654554 164.743444,22.6996975 164.741407,22.6313043 C164.740189,22.5859482 164.72858,22.5414751 164.707473,22.5013043 Z" id="Path" fill="#3CA691"></path>
            <path d="M174.647326,22.5253261 L171.772828,14.8058696 C171.713807,14.6228705 171.540963,14.5008032 171.348652,14.5063043 L170.030879,14.5063043 C169.838568,14.5008032 169.665725,14.6228705 169.606703,14.8058696 L166.733619,22.5253261 L166.709582,22.6327174 C166.707624,22.6997592 166.733314,22.7646604 166.780636,22.8122196 C166.827957,22.8597789 166.892753,22.8858184 166.959846,22.8842391 L168.025941,22.8842391 C168.179587,22.8940788 168.321294,22.8013934 168.373766,22.6567391 L168.419011,22.5394565 L170.696835,16.1341304 L172.756916,21.9629348 L172.756916,21.9629348 L173.021319,22.6567391 C173.073253,22.8011727 173.214463,22.8939105 173.367729,22.8842391 L174.433824,22.8842391 C174.498941,22.8836073 174.561278,22.8577763 174.607736,22.8121739 C174.658563,22.7665216 174.686958,22.7009978 174.685555,22.6327174 L174.647326,22.5253261 Z" id="Path" fill="#3CA691"></path>
            <path d="M156.922432,34.838587 L154.047934,27.1177174 C153.988407,26.9352784 153.815686,26.8138734 153.623758,26.8195652 L152.305985,26.8195652 C152.110622,26.8076122 151.93244,26.9308024 151.87474,27.1177174 L149.000242,34.838587 L148.976138,34.9459783 C148.974641,35.0131529 149.000655,35.0780405 149.048197,35.125553 C149.095739,35.1730655 149.160667,35.1990628 149.227883,35.1975 L150.293978,35.1975 C150.447372,35.2063912 150.588562,35.1140441 150.641802,34.97 L150.685634,34.8527174 L152.964872,28.4473913 L155.023538,34.2747826 L155.023538,34.2747826 L155.287941,34.97 C155.3408,35.1143476 155.482246,35.2068625 155.635766,35.1975 L156.701861,35.1975 C156.766977,35.1968681 156.829314,35.1710372 156.875773,35.1254348 C156.925921,35.0794141 156.953752,35.0140004 156.952192,34.9459783 L156.922432,34.838587 Z" id="Path" fill="#3CA691"></path>
            <path d="M186.982359,22.8008696 C186.928206,22.7470796 186.898118,22.673691 186.898938,22.5973913 L186.898938,14.8058696 C186.895696,14.7264329 186.923596,14.6488669 186.976703,14.5896739 C187.031293,14.53322 187.107483,14.502866 187.185963,14.5063043 L192.468366,14.5063043 C192.549062,14.5017081 192.627869,14.5318409 192.684887,14.5890936 C192.741905,14.6463464 192.771684,14.7252462 192.766703,14.8058696 L192.766703,15.6070652 C192.770744,15.6860124 192.740308,15.7628272 192.683282,15.8176087 C192.624191,15.8698252 192.547177,15.8971686 192.468366,15.893913 L188.540498,15.893913 L188.540498,21.4966304 L192.564513,21.4966304 C192.643563,21.4934609 192.720711,21.5213591 192.779429,21.5743478 C192.836073,21.6287994 192.866475,21.705015 192.86285,21.7834783 L192.86285,22.5973913 C192.86629,22.6758234 192.835917,22.7519656 192.779429,22.8065217 C192.720711,22.8595104 192.643563,22.8874086 192.564513,22.8842391 L187.191619,22.8842391 C187.113322,22.8866139 187.037548,22.8564251 186.982359,22.8008696 L186.982359,22.8008696 Z" id="Path" fill="#3CA691"></path>
            <path d="M191.211392,18.3780435 L189.835648,17.5853261 C189.758378,17.5410607 189.663265,17.5417133 189.586609,17.5870347 C189.509954,17.6323561 189.463586,17.7153525 189.465201,17.8043478 L189.465201,19.3869565 C189.465699,19.4752653 189.51302,19.5566868 189.589526,19.6008761 C189.666033,19.6450654 189.760249,19.6453938 189.837062,19.6017391 L191.212806,18.8076087 C191.289077,18.7627802 191.335792,18.6808485 191.335502,18.5924204 C191.33521,18.5039923 191.287956,18.4223695 191.211392,18.3780435 Z" id="Path" fill="#3CA691"></path>
            <path d="M177.425678,35.1141304 C177.371524,35.0603405 177.341437,34.9869518 177.342256,34.9106522 L177.342256,27.1177174 C177.338778,27.0386689 177.366734,26.9614556 177.420022,26.9029348 C177.474074,26.8456843 177.550644,26.8151787 177.629282,26.8195652 L182.910271,26.8195652 C182.990944,26.8145877 183.069893,26.8443478 183.127181,26.9013305 C183.18447,26.9583132 183.214621,27.0370714 183.210022,27.1177174 L183.210022,27.9203261 C183.213462,27.9987581 183.18309,28.0749004 183.126601,28.1294565 C183.067371,28.1825308 182.989757,28.210414 182.910271,28.2071739 L178.982403,28.2071739 L178.982403,33.8084783 L183.006418,33.8084783 C183.085421,33.805609 183.16246,33.8334676 183.221333,33.8861957 C183.278721,33.9408316 183.309656,34.0176049 183.306168,34.0967391 L183.306168,34.9106522 C183.309808,34.9893988 183.278815,35.0657995 183.221333,35.1197826 C183.162776,35.1730373 183.085515,35.2009763 183.006418,35.1975 L177.633524,35.1975 C177.555714,35.1994813 177.480526,35.1693228 177.425678,35.1141304 Z" id="Path" fill="#3CA691"></path>
            <path d="M181.654711,30.6913043 L180.278967,29.8971739 C180.202154,29.8535192 180.107937,29.8538477 180.031431,29.898037 C179.954924,29.9422262 179.907604,30.0236478 179.907104,30.1119565 L179.907104,31.6988043 C179.906733,31.7874814 179.953901,31.8695691 180.030726,31.9139424 C180.107551,31.9583156 180.20227,31.95818 180.278967,31.913587 L181.654711,31.1194565 C181.731192,31.0752637 181.778295,30.9936711 181.778295,30.9053804 C181.778295,30.8170898 181.731192,30.7354972 181.654711,30.6913043 L181.654711,30.6913043 Z" id="Path" fill="#3CA691"></path>
            <path d="M166.144015,34.8145652 L164.407722,31.7623913 C164.880099,31.6089969 165.291207,31.3090248 165.581275,30.906087 C165.873293,30.474356 166.021717,29.961622 166.005451,29.4407609 C166.005451,28.6023551 165.727851,27.9556522 165.172652,27.5006522 C164.617453,27.0456522 163.849223,26.8186232 162.867963,26.8195652 L159.765824,26.8195652 C159.687249,26.8155651 159.610836,26.8460085 159.556564,26.9029348 C159.503276,26.9614556 159.47532,27.0386689 159.478799,27.1177174 L159.478799,34.9106522 C159.478799,35.0667326 159.605405,35.1932609 159.761582,35.1932609 L160.863026,35.1932609 C160.943461,35.1959187 161.021531,35.1658321 161.079355,35.1098913 C161.133509,35.0561013 161.163596,34.9827127 161.162777,34.906413 L161.162777,28.1591304 L162.828374,28.1591304 C163.306278,28.1591304 163.665414,28.2688768 163.90578,28.4883696 C164.155836,28.7349501 164.286814,29.0776533 164.264916,29.4280435 C164.264916,29.835 164.145204,30.1444565 163.90578,30.356413 C163.738497,30.4919806 163.53952,30.5828987 163.327487,30.6206522 L163.348696,30.6206522 C162.537106,30.811413 162.604974,31.4486957 162.68981,31.6606522 C162.831201,32.0125 164.337026,34.8725 164.337026,34.8725 C164.38601,34.9611208 164.450685,35.0401189 164.527905,35.1056522 C164.61381,35.1706016 164.720139,35.2026809 164.827656,35.196087 L165.929099,35.196087 C165.994215,35.1954551 166.056552,35.1696241 166.103011,35.1240217 C166.154156,35.0785988 166.182617,35.0129205 166.180777,34.9445652 C166.178687,34.8989836 166.166107,34.8544975 166.144015,34.8145652 Z" id="Path" fill="#3CA691"></path>
            <path d="M192.827502,34.8145652 L191.091209,31.7623913 C191.563586,31.6089969 191.974694,31.3090248 192.264762,30.906087 C192.55678,30.474356 192.705204,29.961622 192.688938,29.4407609 C192.688938,28.6023551 192.411338,27.9556522 191.856139,27.5006522 C191.30094,27.0456522 190.532711,26.8186232 189.551451,26.8195652 L186.449311,26.8195652 C186.370673,26.8151787 186.294103,26.8456843 186.240051,26.9029348 C186.186764,26.9614556 186.158807,27.0386689 186.162286,27.1177174 L186.162286,34.9106522 C186.161466,34.9869518 186.191554,35.0603405 186.245707,35.1141304 C186.29953,35.1682502 186.372964,35.1983192 186.449311,35.1975 L187.550755,35.1975 C187.63119,35.2001579 187.70926,35.1700712 187.767084,35.1141304 C187.821238,35.0603405 187.851325,34.9869518 187.850505,34.9106522 L187.850505,28.1591304 L189.514689,28.1591304 C189.994479,28.1591304 190.354085,28.2688768 190.593509,28.4883696 C190.843565,28.7349501 190.974543,29.0776533 190.952645,29.4280435 C190.952645,29.835 190.832933,30.1444565 190.593509,30.356413 C190.426226,30.4919806 190.227249,30.5828987 190.015216,30.6206522 L190.036425,30.6206522 C189.224835,30.811413 189.292703,31.4486957 189.377538,31.6606522 C189.51893,32.0125 191.024755,34.8725 191.024755,34.8725 C191.073739,34.9611208 191.138414,35.0401189 191.215634,35.1056522 C191.301539,35.1706016 191.407868,35.2026809 191.515385,35.196087 L192.616828,35.196087 C192.681944,35.1954551 192.744281,35.1696241 192.79074,35.1240217 C192.841885,35.0785988 192.870346,35.0129205 192.868505,34.9445652 C192.865116,34.8986392 192.851078,34.8541318 192.827502,34.8145652 Z" id="Path" fill="#3CA691"></path>
        </g>
    </g>
</svg>